<svg width="140" height="41" viewBox="0 0 140 41" fill="none" xmlns="http://www.w3.org/2000/svg">
<path d="M9.09091 16.7273H8L10.4012 8H29.6012L32 16.7273H30.9091M9.09091 16.7273V32.5455H11.2727M9.09091 16.7273H30.9091M30.9091 16.7273V32.5455H18.3636M21 11.8182L20.5455 14.5455H28.1818L27.7273 11.8182M21 11.8182H20L21.4545 10.1818H27.2727L28.7273 11.8182H27.7273M21 11.8182H27.7273M11.2727 32.5455V23.2727H18.3636V32.5455M11.2727 32.5455H18.3636M21.0909 18.9091H27.6364V29.8182H21.0909V18.9091ZM11.2727 18.9091V21.0909H18.3636V18.9091H11.2727Z" stroke="#022C43" stroke-width="1.5" stroke-linecap="round" stroke-linejoin="round"/>
<path d="M58.4922 26.2727H56.9766L50.7344 16.6868H50.6719C50.7552 17.8118 50.7969 18.843 50.7969 19.7805V26.2727H49.5703V14.8508H51.0703L57.2969 24.3977H57.3594C57.349 24.2571 57.3255 23.8066 57.2891 23.0461C57.2526 22.2805 57.2396 21.7336 57.25 21.4055V14.8508H58.4922V26.2727ZM68.8281 21.9836C68.8281 23.3795 68.4766 24.4706 67.7734 25.2571C67.0703 26.0383 66.099 26.429 64.8594 26.429C64.0938 26.429 63.4141 26.2493 62.8203 25.8899C62.2266 25.5305 61.7682 25.0149 61.4453 24.343C61.1224 23.6711 60.9609 22.8847 60.9609 21.9836C60.9609 20.5878 61.3099 19.5019 62.0078 18.7258C62.7057 17.9446 63.6745 17.554 64.9141 17.554C66.112 17.554 67.0625 17.9524 67.7656 18.7493C68.474 19.5461 68.8281 20.6243 68.8281 21.9836ZM62.3047 21.9836C62.3047 23.0774 62.5234 23.9107 62.9609 24.4836C63.3984 25.0566 64.0417 25.343 64.8906 25.343C65.7396 25.343 66.3828 25.0592 66.8203 24.4915C67.263 23.9185 67.4844 23.0826 67.4844 21.9836C67.4844 20.8951 67.263 20.0696 66.8203 19.5071C66.3828 18.9394 65.7344 18.6555 64.875 18.6555C64.026 18.6555 63.3854 18.9342 62.9531 19.4915C62.5208 20.0487 62.3047 20.8795 62.3047 21.9836ZM73.875 25.3586C74.1042 25.3586 74.3255 25.343 74.5391 25.3118C74.7526 25.2753 74.9219 25.2389 75.0469 25.2024V26.1946C74.9062 26.2623 74.6979 26.317 74.4219 26.3586C74.151 26.4055 73.9062 26.429 73.6875 26.429C72.0312 26.429 71.2031 25.5566 71.2031 23.8118V18.718H69.9766V18.093L71.2031 17.554L71.75 15.7258H72.5V17.7102H74.9844V18.718H72.5V23.7571C72.5 24.2727 72.6224 24.6685 72.8672 24.9446C73.112 25.2206 73.4479 25.3586 73.875 25.3586ZM80.3828 26.429C79.1172 26.429 78.1172 26.0435 77.3828 25.2727C76.6536 24.5019 76.2891 23.4316 76.2891 22.0618C76.2891 20.6816 76.6276 19.5852 77.3047 18.7727C77.987 17.9602 78.901 17.554 80.0469 17.554C81.1198 17.554 81.9688 17.9081 82.5938 18.6165C83.2188 19.3196 83.5312 20.2493 83.5312 21.4055V22.2258H77.6328C77.6589 23.231 77.9115 23.9941 78.3906 24.5149C78.875 25.0357 79.5547 25.2961 80.4297 25.2961C81.3516 25.2961 82.263 25.1034 83.1641 24.718V25.8743C82.7057 26.0722 82.2708 26.2128 81.8594 26.2961C81.4531 26.3847 80.9609 26.429 80.3828 26.429ZM80.0312 18.6399C79.3438 18.6399 78.7943 18.8639 78.3828 19.3118C77.9766 19.7597 77.737 20.3795 77.6641 21.1711H82.1406C82.1406 20.3534 81.9583 19.7284 81.5938 19.2961C81.2292 18.8586 80.7083 18.6399 80.0312 18.6399Z" fill="#115173"/>
<path d="M94.8672 26.2727H93.3516L87.1094 16.6868H87.0469C87.1302 17.8118 87.1719 18.843 87.1719 19.7805V26.2727H85.9453V14.8508H87.4453L93.6719 24.3977H93.7344C93.724 24.2571 93.7005 23.8066 93.6641 23.0461C93.6276 22.2805 93.6146 21.7336 93.625 21.4055V14.8508H94.8672V26.2727Z" fill="#053F5E"/>
<path d="M104.453 23.2336C104.453 24.2389 104.089 25.0227 103.359 25.5852C102.63 26.1477 101.641 26.429 100.391 26.429C99.0365 26.429 97.9948 26.2545 97.2656 25.9055V24.6243C97.7344 24.8222 98.2448 24.9784 98.7969 25.093C99.349 25.2076 99.8958 25.2649 100.438 25.2649C101.323 25.2649 101.99 25.0982 102.438 24.7649C102.885 24.4264 103.109 23.9576 103.109 23.3586C103.109 22.9628 103.029 22.6399 102.867 22.3899C102.711 22.1347 102.445 21.9003 102.07 21.6868C101.701 21.4732 101.135 21.231 100.375 20.9602C99.3125 20.58 98.5521 20.1295 98.0938 19.6086C97.6406 19.0878 97.4141 18.4081 97.4141 17.5696C97.4141 16.6894 97.7448 15.9889 98.4062 15.468C99.0677 14.9472 99.9427 14.6868 101.031 14.6868C102.167 14.6868 103.211 14.8951 104.164 15.3118L103.75 16.468C102.807 16.0722 101.891 15.8743 101 15.8743C100.297 15.8743 99.7474 16.0253 99.3516 16.3274C98.9557 16.6295 98.7578 17.0487 98.7578 17.5852C98.7578 17.981 98.8307 18.3066 98.9766 18.5618C99.1224 18.8118 99.3672 19.0435 99.7109 19.2571C100.06 19.4654 100.591 19.6972 101.305 19.9524C102.503 20.3795 103.326 20.8378 103.773 21.3274C104.227 21.817 104.453 22.4524 104.453 23.2336ZM112.453 26.2727V20.7336C112.453 20.0357 112.294 19.5149 111.977 19.1711C111.659 18.8274 111.161 18.6555 110.484 18.6555C109.583 18.6555 108.924 18.9003 108.508 19.3899C108.096 19.8795 107.891 20.6816 107.891 21.7961V26.2727H106.594V14.1165H107.891V17.7961C107.891 18.2389 107.87 18.606 107.828 18.8977H107.906C108.161 18.4862 108.523 18.1633 108.992 17.929C109.466 17.6894 110.005 17.5696 110.609 17.5696C111.656 17.5696 112.44 17.8196 112.961 18.3196C113.487 18.8144 113.75 19.6034 113.75 20.6868V26.2727H112.453ZM121.688 26.2727L121.43 25.054H121.367C120.94 25.5904 120.513 25.955 120.086 26.1477C119.664 26.3352 119.135 26.429 118.5 26.429C117.651 26.429 116.984 26.2102 116.5 25.7727C116.021 25.3352 115.781 24.7128 115.781 23.9055C115.781 22.1764 117.164 21.2701 119.93 21.1868L121.383 21.1399V20.6086C121.383 19.9368 121.237 19.442 120.945 19.1243C120.659 18.8014 120.198 18.6399 119.562 18.6399C118.849 18.6399 118.042 18.8586 117.141 19.2961L116.742 18.304C117.164 18.0748 117.625 17.8951 118.125 17.7649C118.63 17.6347 119.135 17.5696 119.641 17.5696C120.661 17.5696 121.417 17.7961 121.906 18.2493C122.401 18.7024 122.648 19.429 122.648 20.429V26.2727H121.688ZM118.758 25.3586C119.565 25.3586 120.198 25.1373 120.656 24.6946C121.12 24.2519 121.352 23.6321 121.352 22.8352V22.0618L120.055 22.1165C119.023 22.1529 118.279 22.3144 117.82 22.6008C117.367 22.8821 117.141 23.3222 117.141 23.9211C117.141 24.3899 117.281 24.7467 117.562 24.9915C117.849 25.2362 118.247 25.3586 118.758 25.3586ZM129.234 17.554C129.615 17.554 129.956 17.5852 130.258 17.6477L130.078 18.8508C129.724 18.7727 129.411 18.7336 129.141 18.7336C128.448 18.7336 127.854 19.0149 127.359 19.5774C126.87 20.1399 126.625 20.8404 126.625 21.679V26.2727H125.328V17.7102H126.398L126.547 19.2961H126.609C126.927 18.7389 127.31 18.3092 127.758 18.0071C128.206 17.705 128.698 17.554 129.234 17.554ZM135.477 26.429C134.211 26.429 133.211 26.0435 132.477 25.2727C131.747 24.5019 131.383 23.4316 131.383 22.0618C131.383 20.6816 131.721 19.5852 132.398 18.7727C133.081 17.9602 133.995 17.554 135.141 17.554C136.214 17.554 137.062 17.9081 137.688 18.6165C138.312 19.3196 138.625 20.2493 138.625 21.4055V22.2258H132.727C132.753 23.231 133.005 23.9941 133.484 24.5149C133.969 25.0357 134.648 25.2961 135.523 25.2961C136.445 25.2961 137.357 25.1034 138.258 24.718V25.8743C137.799 26.0722 137.365 26.2128 136.953 26.2961C136.547 26.3847 136.055 26.429 135.477 26.429ZM135.125 18.6399C134.438 18.6399 133.888 18.8639 133.477 19.3118C133.07 19.7597 132.831 20.3795 132.758 21.1711H137.234C137.234 20.3534 137.052 19.7284 136.688 19.2961C136.323 18.8586 135.802 18.6399 135.125 18.6399Z" fill="#E6C61E"/>
</svg>
