<svg width="20" height="20" viewBox="0 0 20 20" fill="none" xmlns="http://www.w3.org/2000/svg">
<g clip-path="url(#clip0_2_352)">
<path d="M15.7533 7.38883C15.4808 7.38883 15.2599 7.60975 15.2599 7.88223V16.8922C15.2599 17.8443 14.4851 18.6191 13.533 18.6191H2.71376C1.76164 18.6191 0.986835 17.8443 0.986835 16.8922V6.07291C0.986835 5.12078 1.76164 4.34602 2.71376 4.34602H13.533C13.8055 4.34602 14.0264 4.1251 14.0264 3.85262C14.0264 3.58014 13.8055 3.35922 13.533 3.35922H2.71376C1.21737 3.35922 0 4.57655 0 6.07291V16.8922C0 18.3885 1.21737 19.6059 2.71376 19.6059H13.533C15.0293 19.6059 16.2467 18.3885 16.2467 16.8922V7.88227C16.2467 7.60979 16.0258 7.38883 15.7533 7.38883Z" fill="black"/>
<path d="M19.5531 0.840147C18.9583 0.245322 17.9905 0.245565 17.3962 0.840147L8.94467 9.29187C8.93336 9.30318 8.80591 9.43568 8.77289 9.50991L7.60252 12.1393C7.5194 12.326 7.55985 12.5445 7.70439 12.6889C7.79883 12.7833 7.92507 12.8334 8.05349 12.8334C8.12117 12.8334 8.18934 12.8194 8.25392 12.7907L10.8833 11.6203C10.9573 11.5874 11.09 11.4599 11.1014 11.4485L19.5531 2.99711C19.8412 2.70895 20 2.32591 20 1.91851C20 1.51114 19.8412 1.12802 19.5531 0.840147ZM18.8554 2.29916L10.4037 10.7509C10.4022 10.7523 10.4014 10.754 10.4001 10.7552L9.02658 11.3666L9.63802 9.99321C9.63923 9.99175 9.64089 9.99099 9.64234 9.98957L18.0939 1.53789C18.2974 1.33427 18.6523 1.33451 18.8554 1.5381C18.9572 1.63952 19.0132 1.77469 19.0132 1.91851C19.0132 2.06232 18.9571 2.19745 18.8554 2.29916Z" fill="black"/>
</g>
<defs>
<clipPath id="clip0_2_352">
<rect width="20" height="20" fill="white"/>
</clipPath>
</defs>
</svg>
